<svg version="1.1" id="Layer_1" xmlns="http://www.w3.org/2000/svg" x="0" y="0" viewBox="0 0 1047.706 329.321" xml:space="preserve"><style>.st2{fill:#e94436}.st4{fill:#62666a}</style><path d="M221.225 93.475c14.988 12.391 24.64 28.356 30.864 46.528 1.219 3.559 2.904 6.25 5.942 8.662 24.954 19.817 35.079 52.321 26.042 82.722-9.075 30.528-34.786 52.132-66.949 54.991-22.409 1.992-44.938 1.11-67.418.334-.025-15.903-.048-31.806-.071-47.71 5.804-.081 11.608-.213 17.412-.234 14.764-.054 29.54.321 44.287-.193 13.906-.484 25.598-11.527 27.307-24.709 1.915-14.769-6.008-27.87-19.769-32.457-2.917-.972-5.988-1.481-8.894-2.181-4.04-30.989-5.969-35.387-22.808-52.201l34.055-33.552z" fill="#4587f2"/><path d="M43.492 270.961C4.356 242.31 2.228 182.258 39.246 150.859c2.397-2.033 4.87-3.976 7.307-5.959l1.174-1.393-.124.062c18.669-10.112 38.331-14.485 59.477-10.298 18.128 4.599 33.357 13.62 43.796 27.441l-34.436 34.347c-1.049-1.349-2.659-3.786-4.623-5.892-15.481-16.593-42.975-10.177-49.599 11.53-4.322 14.162 1.069 26.287 15.95 35.872l-34.676 34.392z" fill="#fabc07"/><path class="st2" d="M107.079 133.27c-21.144-4.186-40.807.187-59.476 10.299 2.504-14.514 10.071-26.541 19.013-37.755 37.852-47.471 111.913-53.327 154.607-12.338l-34.052 33.55c-2.867-1.803-5.668-3.722-8.612-5.388-23.479-13.289-54.687-8.189-71.48 11.632z"/><path d="M43.492 270.961c11.559-11.464 23.117-22.928 34.677-34.391 5.798 1.922 11.756 2.375 17.839 2.35 17.875-.073 35.752.04 53.628.081.023 15.904.046 31.807.071 47.71-25.749.101-51.589 2.237-77.179-1.956-10.791-1.768-20.526-6.732-29.036-13.794z" fill="#35a853"/><path class="st4" d="M386.195 182.906c13.828 0 27.172-.679 40.418.174 16.03 1.033 28.335 14.312 28.754 29.446.478 17.3-10.142 30.705-27.225 32.933-8.061 1.051-16.373.18-25.855.18v40.277h-16.092v-103.01zm16.203 47.801c6.083 0 11.393.002 16.703-.002 1.452-.001 2.913.083 4.353-.049 8.186-.753 14.309-6.234 15.554-13.854 1.153-7.057-3.257-15.105-10.292-17.326-8.634-2.727-17.477-1.22-26.319-1.239l.001 32.47zM525.239 286.08h-14.75l-1.333-7.848c-7.718 7.856-16.057 11.683-26.554 9.786-12.487-2.256-21.183-11.135-21.648-22.771-.481-12.047 6.92-20.905 19.834-24.093 9.505-2.347 18.718-.913 28.234 2.045 1.55-7.221-2.033-11.424-7.315-14.391-8.111-4.556-16.845-2.437-26.577 6.205l-11.038-7.178c-.523-2.814 1.337-3.908 2.653-5.185 11.729-11.387 35.619-12.931 48.574-3.082 5.892 4.48 9.618 10.602 9.8 17.928.394 15.95.12 31.916.12 48.584zm-34.389-11.212c7.558-.07 14.656-4.967 17.603-11.882 1.856-4.355 1.38-7.208-3.719-8.77-5.218-1.598-10.438-2.086-15.742-1.308-6.973 1.023-12.024 6.23-11.755 11.72.289 5.908 6.141 10.31 13.613 10.24zM782.063 262.343l13.111 6.766c-9.501 17.528-29.807 24.255-47.878 16.326-17.523-7.688-25.886-28.368-19.373-47.902 5.935-17.802 24.241-27.838 42.995-23.572 17.119 3.894 27.767 20.522 25.136 40.069h-53.389c.276 9.146 4.545 15.562 12.322 18.294 11.426 4.014 20.364.144 27.076-9.981zm-2.256-20.747c-1.412-9.171-7.59-14.302-17.15-14.708-9.555-.405-16.792 5.12-18.767 14.708h35.917zM665.773 285.959h-15.778v-70.306h14.644l.64 8.879c6.469-6.861 13.47-11.403 22.843-11.35 16.011.09 26.128 9.299 26.522 25.432.379 15.495.082 31.007.082 46.757-5.073 1.859-10.086.426-16.035 1.112 0-14.787.013-28.991-.006-43.195-.008-6.258-1.804-11.523-8.271-13.927-7.012-2.607-13.351-1.586-18.676 3.882-3.334 3.424-5.261 7.626-5.41 12.378-.32 10.163-.397 20.334-.548 30.502-.046 3.113-.007 6.228-.007 9.836zM452.015 89.51h-26.523c-1.356-3.416-1.259-6.176-.214-9.323h36.04c4.772 15.636-4.303 33.487-20.345 40.245-19.488 8.209-42.019.641-52.302-17.568-10.109-17.901-5.047-41.137 11.62-53.344 16.028-11.738 38.913-9.954 51.696 4.172-1.224 2.642-3.587 4.264-6.235 6.501-7.101-6.996-15.831-9.501-25.684-8.364-6.517.752-12.031 3.641-16.763 8.004-9.695 8.94-12.274 26.508-5.76 38.325 6.727 12.202 20.598 18.089 34.859 14.792 11.806-2.728 19.096-11.205 19.611-23.44zM639.307 215.041v14.273h-16.925c0 12.414-.433 23.982.156 35.497.378 7.391 4.402 9.178 14.495 7.541l4.647 13.192c-20.506 8.55-35.671-1.286-35.715-22.69-.022-10.852-.004-21.703-.004-33.006l-11.722-.535c-1.03-4.526-.672-8.956-.245-13.857l11.872-.537V193.68h15.491c1.91 6.834-.332 13.95 1.458 21.359 5.309.002 10.546.002 16.492.002zM636.214 74.208c-.319-8.419 4.943-5.755 9.388-5.859 0 19.349.753 38.44-.284 57.434-.619 11.335-9.878 19.054-21.106 20.846-13.499 2.155-22.119-2.008-29.068-14.162 1.638-3.097 5.155-2.962 7.731-4.404 8.087 9.719 15.061 12.133 23.812 8.309 7.231-3.16 10.371-10.055 9.033-19.839-16.121 9.69-27.483 9.034-36.664-2.118-9.486-11.522-9.034-29.28 1.017-40.012 9.457-10.094 21.347-10.399 36.141-.195zm.192 20.323c-.158-10.818-7.396-18.912-16.926-18.926-9.747-.015-17.155 8.476-17.078 19.572.077 11.093 7.631 19.468 17.365 19.254 9.856-.216 16.805-8.526 16.639-19.9zM1020.307 74.134V44.297c3.352-1.358 6.335-1.072 9.702-.28v76.849c-8.1 1.626-8.1 1.626-10.083-5.134-6.554 6.577-14.321 9.07-23.1 7.244-5.902-1.227-10.557-4.657-14.206-9.454-8.828-11.607-7.917-29.14 2.065-39.436 9.479-9.777 21.728-10.04 35.622.048zm.442 20.696c-.024-10.819-7.09-18.955-16.661-19.185-9.746-.234-17.338 8.168-17.377 19.233-.039 11.125 7.337 19.584 17.066 19.571 9.83-.014 16.997-8.299 16.972-19.619zM822.348 103.392l6.66 5.866c-13.902 17.46-41.193 19.243-57.979 4.11-17.152-15.462-17.878-43.66-1.543-59.914 16.057-15.977 42.583-15.567 57.497 1.529l-7.515 5.328c-6.742-7.394-16.172-9.909-26.785-8.305-7.251 1.096-13.162 4.758-17.798 10.341-9.815 11.819-8.936 31.95 1.747 42.716 11.986 12.081 29.137 11.482 45.716-1.671zM807.225 215.494h14.118c1.65 2.967.337 5.976 1.297 9.48 8.469-9.613 18.126-15.023 31.367-9.522l-4.34 14.107c-6.614-.604-12.89-1.727-18.445 2.618-6.593 5.158-8.213 12.206-8.225 19.98-.017 11.092-.004 22.185-.004 33.695-5.525.722-10.454.613-15.768.037v-70.395zM728.758 96.947h-41.104c.018 8.495 3.558 13.769 10.693 16.354 7.655 2.773 14.001.541 20.337-7.3 2.915-.169 5.212 1.662 7.822 2.57-3.728 11.672-16.18 17.487-29.633 14.2-13.764-3.364-22.446-17.745-19.818-32.829 2.674-15.348 14.6-24.853 29.238-23.304 14.56 1.542 23.287 12.954 22.465 30.309zm-11.311-8.778c-1.061-8.124-6.087-12.533-14.028-12.636-7.674-.1-13.64 5.013-14.657 12.636h28.685zM557.025 286.439c-5.535.965-10.479.965-15.659.019v-69.941h14.305l.657 9.549c4.866-6.119 10.269-10.478 17.677-11.833 9.266-1.694 10.683-.703 10.677 8.451-.002 2.156 0 4.312 0 5.894-.96 1.644-1.936 1.335-2.879 1.261-16.629-1.295-24.605 5.858-24.759 22.376-.104 11.328-.019 22.657-.019 34.224zM495.934 123.508c-15.779-.085-27.454-12.192-27.459-28.477-.005-16.53 12.1-28.796 28.188-28.563 15.611.226 27.29 12.7 27.086 28.931-.205 16.302-11.973 28.194-27.815 28.109zm17.637-28.615c-.032-10.77-7.955-19.489-17.599-19.367-9.697.123-17.386 8.855-17.308 19.658.079 10.867 7.857 19.394 17.598 19.289 9.77-.107 17.342-8.673 17.309-19.58zM557.131 123.508c-15.794-.059-27.478-12.127-27.514-28.42-.036-16.534 12.041-28.822 28.13-28.62 15.617.196 27.318 12.642 27.144 28.874-.174 16.3-11.928 28.225-27.76 28.166zm17.579-28.859c-.125-10.739-8.245-19.443-17.841-19.124-9.743.324-17.234 9.061-17.062 19.902.171 10.837 8.116 19.318 17.841 19.044 9.766-.274 17.189-8.898 17.062-19.822zM885.078 123.508c-15.864.128-27.651-11.703-27.911-28.011-.263-16.539 11.651-29.02 27.709-29.027 15.662-.007 27.516 12.233 27.565 28.464.05 16.274-11.607 28.448-27.363 28.574zm17.171-28.537c-.002-10.777-7.864-19.502-17.521-19.446-9.684.057-17.435 8.786-17.386 19.58.05 10.885 7.767 19.415 17.52 19.367 9.765-.049 17.389-8.601 17.387-19.501zM921.406 68.515h9.74c0 9.953-.058 19.581.015 29.208.088 11.526 3.973 16.577 12.688 16.728 8.132.141 14.159-6.75 14.352-16.848.184-9.64.04-19.285.04-28.775 3.702-.919 6.559-.857 9.871-.159v52.616c-4.13.365-8.815 2.945-10.277-4.832-4.786 3.227-9.122 6.693-14.932 7.03-11.664.677-20.482-5.537-21.297-17.03-.884-12.478-.2-25.066-.2-37.938zM667.541 121.34c-3.23.628-6.03.784-9.208-.175V44.33c2.886-1.684 5.883-.593 9.208-.838v77.848zM847.835 121.452h-8.996c-.151-1.468-.372-2.624-.373-3.78-.02-24.378-.015-48.755-.015-72.934 3.096-2.144 6.004-1.084 9.385-1.15l-.001 77.864z"/><path class="st2" d="M47.727 143.507l-1.174 1.393c.062-.743.035-1.56 1.174-1.393z"/></svg>