<svg id="Layer_1" data-name="Layer 1" xmlns="http://www.w3.org/2000/svg" viewBox="0 0 480.03 152.41"><path d="M298.94,126V113.65h31.69V98.48c-1.44,1.82-2.75,3.43-4,5.09a1.73,1.73,0,0,1-1.56.78q-8.76,0-17.51,0a1.89,1.89,0,0,1-1.66-.84c-3.4-4.37-6.83-8.71-10.21-13.08a2.41,2.41,0,0,1-.48-1.39q0-12.73,0-25.45a2.41,2.41,0,0,1,.48-1.39c3.4-4.36,6.85-8.69,10.26-13.05a1.78,1.78,0,0,1,1.58-.75q8.76,0,17.51,0a1.73,1.73,0,0,1,1.58.75c1.84,2.39,3.73,4.73,5.8,7.33v-8H346v76.27c0,.4-.05.81-.07,1.21Zm32.37-49.61c-.29-2.44-.45-4.9-.92-7.31-.59-3-1.82-5.78-4.54-7.55a9.84,9.84,0,0,0-14.66,4.88,27.53,27.53,0,0,0-1.47,7.09,27.17,27.17,0,0,0,1.61,13.23,9.83,9.83,0,0,0,18,.16A29.76,29.76,0,0,0,331.31,76.35Z"/><path d="M363.68,126c1.27-3.48,2.52-7,3.81-10.45,1.35-3.66,2.75-7.3,4.09-11a2.39,2.39,0,0,0,0-1.45q-9.49-26.7-19-53.4c-.13-.37-.25-.75-.43-1.28h1.3c4.58,0,9.16,0,13.74,0A1.56,1.56,0,0,1,369,49.72q4.71,15.57,9.54,31.11c.11.38.26.74.5,1.38,1.07-3.39,2.06-6.51,3-9.63,2.45-7.75,4.88-15.5,7.36-23.24.11-.36.55-.87.84-.88,5.25,0,10.49,0,15.74,0v.22a3,3,0,0,0-.25.47q-11.52,32.54-23,65.06c-1.39,3.92-2.81,7.82-4.22,11.72Z"/><path d="M154.32,80.81H119.06c-.89,3.85,2.2,9.14,6.39,10.84,5.31,2.16,12.06,1.26,16.1-6.22l12.11,6.95c-2.29,3.08-4.67,6-6.67,9.09-1.46,2.27-3.15,3-5.85,2.94-8-.2-16-.08-24,0a2,2,0,0,1-1.75-.86c-3.38-4.37-6.82-8.7-10.2-13.08a2.75,2.75,0,0,1-.55-1.58q0-12.51,0-25a2.76,2.76,0,0,1,.53-1.59c3.4-4.37,6.85-8.69,10.26-13.05a1.75,1.75,0,0,1,1.56-.78c8.38,0,16.77,0,25.15,0a2.18,2.18,0,0,1,1.46.7c3.48,4.34,6.92,8.72,10.36,13.1a2.09,2.09,0,0,1,.46,1.17c0,5.64,0,11.28,0,16.93C154.4,80.45,154.36,80.56,154.32,80.81Zm-14.4-10.32c.53-5.38-4.32-10.33-10.33-10.4-7-.07-10.49,5.48-10.53,10.4Z"/><path d="M236.54,48.28c5.46,0,10.93,0,16.4,0,.75,0,1.16.15,1.43,1,2.9,8.75,5.86,17.49,8.77,26.24a2.91,2.91,0,0,1,0,1.68c-2.91,8.75-5.86,17.49-8.78,26.24a1.17,1.17,0,0,1-1.31,1q-16.39,0-32.8,0a1.14,1.14,0,0,1-1.33-.93c-2.91-8.68-5.87-17.34-8.76-26a3.78,3.78,0,0,1,0-2.21c2.88-8.64,5.84-17.27,8.73-25.91a1.21,1.21,0,0,1,1.37-1C225.68,48.3,231.11,48.28,236.54,48.28Zm10.33,28a26.8,26.8,0,0,0-1.58-10.08c-1.58-4-4.63-6.21-8.64-6.23a8.68,8.68,0,0,0-8.76,6.15,29.84,29.84,0,0,0-1.53,7.07,29.16,29.16,0,0,0,1.2,12.54c.91,2.66,2.36,5,5.06,6.1,4.39,1.83,10,.81,12.46-5A26.71,26.71,0,0,0,246.87,76.3Z"/><path d="M182.69,83.93l4.52-15.15c1.93-6.48,3.85-13,5.81-19.43.11-.36.55-.88.84-.89,4.87-.05,9.74,0,14.8,0-.33,1-.6,2-.91,2.88q-8.82,26-17.63,52a1.27,1.27,0,0,1-1.46,1.06c-4,0-8,0-12.08,0a1.1,1.1,0,0,1-1.25-.9Q166.18,76.35,157,49.24c-.06-.2-.11-.41-.21-.74.42,0,.77-.07,1.11-.07,4.4,0,8.8,0,13.19,0a1.18,1.18,0,0,1,1.36,1q4.91,16.67,9.88,33.31C182.41,83.05,182.51,83.37,182.69,83.93Z"/><path d="M285.8,26.45v77.8H270.65V38.55H257.79V26.45Z"/><path d="M74,48.48h28V60.61H89.24v43.66H74Z"/></svg>