<?xml version="1.0" encoding="utf-8"?>
<!-- Generator: Adobe Illustrator 22.1.0, SVG Export Plug-In . SVG Version: 6.00 Build 0)  -->
<svg version="1.1" id="a" xmlns="http://www.w3.org/2000/svg" xmlns:xlink="http://www.w3.org/1999/xlink" x="0px" y="0px"
	 viewBox="0 0 200 110.3" style="enable-background:new 0 0 200 110.3;" xml:space="preserve">
<style type="text/css">
	.st0{fill:#252F3E;}
	.st1{fill:#FF9900;}
</style>
<g>
	<path class="st0" d="M68.7,60.3c0.8,0.5,2,0.9,3.5,1.2c1.5,0.4,3.1,0.5,4.7,0.5s3-0.2,4.3-0.6s2.4-1,3.4-1.7s1.7-1.7,2.2-2.7
		s0.8-2.2,0.8-3.5c0-1.6-0.5-3-1.4-4.3c-0.9-1.2-2.5-2.2-4.7-2.9l-4.3-1.4c-1.6-0.5-2.8-1.1-3.4-1.7S72.9,42,72.9,41
		c0-1.2,0.5-2.2,1.4-2.7s2.3-0.9,4.1-0.9c2.2,0,4.1,0.4,5.9,1.2c0.5,0.2,0.9,0.4,1.2,0.4c0.5,0,0.7-0.3,0.7-1v-1.4
		c0-0.4-0.1-0.8-0.3-1s-0.5-0.5-0.9-0.8c-0.3-0.2-0.8-0.4-1.3-0.5c-0.5-0.2-1.1-0.3-1.7-0.5c-0.6-0.1-1.3-0.3-2-0.4
		c-0.7-0.1-1.4-0.1-2.1-0.1c-1.3,0-2.6,0.2-3.8,0.5c-1.2,0.4-2.3,0.9-3.2,1.6C70,36.2,69.2,37,68.7,38s-0.8,2.1-0.8,3.4
		c0,1.6,0.5,3.1,1.5,4.4c1,1.4,2.6,2.4,4.9,3.1l4.4,1.4c1.5,0.5,2.5,1,3.1,1.6s0.8,1.3,0.8,2.1c0,1.2-0.5,2.2-1.6,2.9
		c-1.1,0.7-2.5,1-4.5,1c-1.2,0-2.4-0.1-3.6-0.4s-2.3-0.6-3.4-1.1c-0.3-0.1-0.6-0.2-0.8-0.3C68.5,56,68.3,56,68.1,56
		c-0.5,0-0.7,0.3-0.7,1v1.5c0,0.3,0.1,0.6,0.2,0.9C67.8,59.8,68.2,60,68.7,60.3L68.7,60.3z"/>
	<path class="st0" d="M17.1,45.5c-1.1-0.2-2.2-0.2-3.2-0.2c-3.1,0-5.6,0.8-7.5,2.4c-1.8,1.6-2.8,3.7-2.8,6.3c0,2.5,0.7,4.4,2.2,5.9
		s3.5,2.2,6.1,2.2c3.6,0,6.6-1.4,9-4.2c0.3,0.7,0.6,1.3,0.9,1.8s0.7,1,1.1,1.4c0.3,0.3,0.6,0.4,0.9,0.4c0.2,0,0.5-0.1,0.8-0.3
		l1.9-1.3c0.4-0.3,0.6-0.6,0.6-0.9c0-0.2-0.1-0.4-0.2-0.7c-0.4-0.8-0.8-1.5-1-2.2s-0.4-1.6-0.4-2.7v-10c0-3.3-0.9-5.8-2.5-7.5
		s-4.4-2.5-8-2.5c-1.7,0-3.3,0.2-4.8,0.6c-1.5,0.4-2.8,0.9-3.8,1.4C6,35.6,5.7,35.8,5.6,36s-0.2,0.6-0.2,1.1v1.5c0,0.6,0.2,1,0.6,1
		c0.1,0,0.3,0,0.5-0.1s0.6-0.2,1.1-0.4c1.1-0.4,2.2-0.8,3.3-1c1.1-0.3,2.2-0.4,3.3-0.4c2.3,0,4,0.5,5,1.4s1.4,2.6,1.4,4.9v2.2
		C19.3,45.9,18.2,45.7,17.1,45.5L17.1,45.5z M20.6,50.9c0,1-0.1,1.9-0.3,2.6c-0.2,0.7-0.5,1.4-1,2c-0.8,0.9-1.8,1.6-2.9,1.9
		S14.2,58,13.2,58c-1.4,0-2.5-0.4-3.2-1.1c-0.8-0.7-1.1-1.8-1.1-3.2c0-1.5,0.5-2.7,1.5-3.5s2.5-1.2,4.5-1.2c0.9,0,1.9,0.1,2.9,0.2
		s1.9,0.3,2.8,0.5V50.9L20.6,50.9z"/>
	<path class="st0" d="M35.9,59.8c0.2,0.6,0.4,1,0.6,1.2c0.2,0.2,0.6,0.3,1.2,0.3h2.6c0.6,0,1-0.1,1.2-0.3s0.4-0.6,0.6-1.2l4.7-19.7
		l4.8,19.7c0.1,0.6,0.3,1,0.6,1.2s0.7,0.3,1.2,0.3H56c0.5,0,0.9-0.1,1.2-0.3c0.2-0.2,0.5-0.6,0.6-1.2l7.4-23.6
		c0.1-0.3,0.2-0.6,0.2-0.8s0.1-0.3,0.1-0.5c0-0.5-0.2-0.8-0.8-0.8h-2.8c-0.6,0-1,0.1-1.2,0.3s-0.4,0.6-0.6,1.2l-5.3,20.5L50,35.7
		c-0.1-0.6-0.3-1-0.6-1.2c-0.2-0.2-0.7-0.3-1.2-0.3h-2.5c-0.6,0-1,0.1-1.2,0.3S44,35,43.9,35.7l-4.8,20.2L34,35.6
		c-0.2-0.6-0.4-1-0.6-1.2c-0.2-0.2-0.6-0.3-1.2-0.3h-3c-0.5,0-0.8,0.2-0.8,0.8c0,0.2,0.1,0.6,0.3,1.2L35.9,59.8L35.9,59.8z"/>
	<path class="st1" d="M81.2,74.6c-11.3,4.8-23.5,7.1-34.7,7.1C30,81.7,14,77.2,1.1,69.6c-1.1-0.7-2,0.5-1,1.3
		c12,10.8,27.8,17.3,45.4,17.3c12.5,0,27.1-3.9,37.2-11.4C84.3,75.7,82.9,73.9,81.2,74.6z"/>
	<path class="st1" d="M74.9,70.4c-0.9,0.6-0.7,1.5,0.2,1.4c3.2-0.4,10.4-1.2,11.7,0.4c1.3,1.7-1.4,8.4-2.6,11.5
		c-0.4,0.9,0.4,1.3,1.2,0.6c5.4-4.5,6.8-14,5.7-15.3C90.1,67.5,80.6,66.3,74.9,70.4L74.9,70.4z"/>
</g>
<g>
	<path class="st0" d="M115.3,55c-0.2,0-0.4-0.1-0.4-0.4V38.1c0-0.2,0.1-0.4,0.4-0.4h0.5c0.3,0,0.4,0.1,0.4,0.4l0.1,1
		c0.7-0.6,1.5-1,2.2-1.3s1.4-0.4,2.2-0.4c1.6,0,2.8,0.6,3.7,1.7c0.9,1.1,1.4,2.7,1.4,4.6c0,2-0.5,3.6-1.4,4.8s-2.2,1.8-3.9,1.8
		c-1.5,0-2.8-0.6-4.1-1.7v6c0,0.2-0.1,0.4-0.4,0.4L115.3,55L115.3,55z M120.3,49c1.3,0,2.3-0.4,3-1.3s1-2.2,1-3.9
		c0-3.4-1.3-5.1-3.9-5.1c-1.3,0-2.7,0.5-4,1.5v7.1c0.7,0.6,1.3,1,1.9,1.2C118.9,48.8,119.6,48.9,120.3,49L120.3,49z"/>
	<path class="st0" d="M131.7,50.2c-1.1,0-2-0.3-2.7-1c-0.6-0.6-1-1.5-1-2.6c0-1.2,0.4-2.1,1.2-2.8c0.8-0.7,1.9-1,3.3-1
		c1.1,0,2.2,0.2,3.5,0.6v-2c0-1-0.2-1.7-0.7-2.1c-0.5-0.4-1.2-0.6-2.3-0.6s-2.3,0.2-3.5,0.6c-0.1,0-0.3,0.1-0.4,0.1
		c-0.2,0-0.2-0.1-0.2-0.3v-0.4c0-0.1,0-0.2,0.1-0.3s0.1-0.1,0.2-0.2c1.3-0.5,2.6-0.8,4.1-0.8s2.5,0.3,3.2,0.9c0.7,0.6,1,1.5,1,2.7
		v8.6c0,0.2-0.1,0.4-0.4,0.4h-0.5c-0.2,0-0.4-0.1-0.4-0.4l-0.1-1C134.7,49.7,133.2,50.3,131.7,50.2L131.7,50.2z M131.9,49
		c0.6,0,1.3-0.1,2-0.4s1.4-0.6,2.2-1.1v-3c-1.1-0.3-2.1-0.4-3.2-0.4c-2.3,0-3.4,0.9-3.4,2.6c0,0.8,0.2,1.3,0.6,1.7
		S131.1,48.9,131.9,49L131.9,49z"/>
	<path class="st0" d="M141.6,50c-0.2,0-0.4-0.1-0.4-0.4V38.1c0-0.2,0.1-0.4,0.4-0.4h0.5c0.3,0,0.4,0.1,0.4,0.4l0.1,1.4
		c0.6-0.7,1.2-1.2,1.8-1.4c0.6-0.3,1.3-0.4,2-0.4c0.3,0,0.5,0,0.6,0c0.2,0,0.4,0.1,0.4,0.4v0.6c0,0.1,0,0.1-0.1,0.2
		c0,0.1-0.1,0.1-0.2,0.1c-0.1,0-0.2,0-0.4,0c-0.1,0-0.3,0-0.5,0c-0.7,0-1.4,0.1-2,0.4c-0.6,0.3-1.1,0.7-1.7,1.3v8.9
		c0,0.2-0.1,0.4-0.4,0.4H141.6z"/>
	<path class="st0" d="M153.8,50.1c-1,0-1.7-0.2-2.2-0.8c-0.5-0.5-0.8-1.2-0.8-2.2V39h-1.9c-0.2,0-0.4-0.1-0.4-0.4v-0.2
		c0-0.1,0-0.2,0.1-0.3s0.1-0.1,0.3-0.1l2-0.2l0.2-3.2c0-0.1,0.1-0.2,0.1-0.3s0.1-0.1,0.3-0.1h0.4c0.2,0,0.4,0.1,0.4,0.4v3.2h3.5
		c0.2,0,0.4,0.1,0.4,0.4v0.5c0,0.2-0.1,0.4-0.4,0.4h-3.5V47c0,0.7,0.1,1.1,0.4,1.4c0.3,0.3,0.8,0.4,1.4,0.4c0.5,0,0.9,0,1.2-0.1
		c0.2,0,0.3-0.1,0.4-0.1s0.2,0,0.2,0c0.2,0,0.3,0.1,0.3,0.3v0.4c0,0.3-0.1,0.4-0.3,0.5C155.3,50,154.6,50.1,153.8,50.1L153.8,50.1z"
		/>
	<path class="st0" d="M159.2,50c-0.2,0-0.4-0.1-0.4-0.4V38.1c0-0.2,0.1-0.4,0.4-0.4h0.5c0.3,0,0.4,0.1,0.4,0.4l0.1,1
		c0.8-0.6,1.6-1,2.5-1.3s1.7-0.5,2.6-0.5c1.2,0,2.1,0.3,2.7,0.9c0.6,0.6,0.9,1.5,0.9,2.8v8.5c0,0.2-0.1,0.4-0.4,0.4h-0.6
		c-0.2,0-0.4-0.1-0.4-0.4v-7.9c0-1-0.2-1.8-0.6-2.3c-0.4-0.5-1.1-0.7-1.9-0.7c-1.6,0-3.2,0.5-4.7,1.5v9.4c0,0.2-0.1,0.4-0.4,0.4
		L159.2,50L159.2,50z"/>
	<path class="st0" d="M177.8,50.3c-1.9,0-3.4-0.5-4.4-1.6s-1.5-2.7-1.5-4.9c0-2,0.5-3.6,1.5-4.8c1-1.1,2.4-1.7,4.1-1.7
		c1.5,0,2.6,0.4,3.4,1.3c0.8,0.8,1.2,2.1,1.2,3.6c0,0.7,0,1.1-0.1,1.5c-0.1,0.2-0.2,0.4-0.4,0.4h-8.2c0,1.7,0.4,3,1.1,3.8
		s1.9,1.2,3.4,1.2c1.2,0,2.3-0.2,3.3-0.6c0.2-0.1,0.4-0.1,0.4-0.1c0.1,0,0.1,0,0.2,0.1c0.1,0.1,0.1,0.1,0.1,0.2V49
		c0,0.3-0.1,0.4-0.3,0.5C180.5,50,179.2,50.3,177.8,50.3L177.8,50.3z M180.8,43c0-0.2,0-0.5,0-0.8c0-1.2-0.3-2.1-0.9-2.7
		s-1.4-0.9-2.5-0.9c-2.6,0-3.9,1.5-4.1,4.3h7.5V43z"/>
	<path class="st0" d="M185.6,50c-0.2,0-0.4-0.1-0.4-0.4V38.1c0-0.2,0.1-0.4,0.4-0.4h0.5c0.3,0,0.4,0.1,0.4,0.4l0.1,1.4
		c0.6-0.7,1.2-1.2,1.8-1.4c0.6-0.3,1.3-0.4,2-0.4c0.3,0,0.5,0,0.6,0c0.2,0,0.4,0.1,0.4,0.4v0.6c0,0.1,0,0.1-0.1,0.2
		c0,0.1-0.1,0.1-0.2,0.1c-0.1,0-0.2,0-0.4,0c-0.1,0-0.3,0-0.5,0c-0.7,0-1.4,0.1-2,0.4c-0.6,0.3-1.1,0.7-1.7,1.3v8.9
		c0,0.2-0.1,0.4-0.4,0.4H185.6z"/>
	<path class="st0" d="M115.3,76.9c-0.2,0-0.4-0.1-0.4-0.4V65.1c0-0.2,0.1-0.4,0.4-0.4h0.5c0.3,0,0.4,0.1,0.4,0.4l0.1,1
		c0.8-0.6,1.6-1,2.5-1.3s1.7-0.5,2.6-0.5c1.2,0,2.1,0.3,2.7,0.9s0.9,1.5,0.9,2.8v8.5c0,0.2-0.1,0.4-0.4,0.4h-0.7
		c-0.2,0-0.4-0.1-0.4-0.4v-7.9c0-1.1-0.2-1.8-0.6-2.3s-1.1-0.7-1.9-0.7c-1.6,0-3.2,0.5-4.7,1.6v9.4c0,0.2-0.1,0.4-0.4,0.4
		C116,76.9,115.3,76.9,115.3,76.9z"/>
	<path class="st0" d="M133.9,77.3c-1.9,0-3.4-0.5-4.4-1.6s-1.5-2.7-1.5-4.9c0-2,0.5-3.6,1.5-4.8c1-1.1,2.4-1.7,4.1-1.7
		c1.5,0,2.6,0.4,3.4,1.3c0.8,0.8,1.2,2,1.2,3.6c0,0.7,0,1.1-0.1,1.5c-0.1,0.2-0.2,0.4-0.4,0.4h-8.2c0,1.7,0.4,3,1.1,3.8
		s1.9,1.2,3.4,1.2c1.2,0,2.3-0.2,3.3-0.6c0.2-0.1,0.4-0.1,0.4-0.1c0.1,0,0.1,0,0.2,0.1c0.1,0.1,0.1,0.1,0.1,0.2v0.4
		c0,0.3-0.1,0.4-0.3,0.5C136.6,77,135.3,77.3,133.9,77.3L133.9,77.3z M136.9,69.9c0-0.2,0-0.5,0-0.8c0-1.2-0.3-2.1-0.9-2.7
		s-1.4-0.9-2.5-0.9c-2.6,0-3.9,1.4-4.1,4.3L136.9,69.9L136.9,69.9z"/>
	<path class="st0" d="M145.1,77.1c-1,0-1.7-0.2-2.2-0.8c-0.5-0.5-0.8-1.2-0.8-2.2v-8.2h-1.9c-0.2,0-0.4-0.1-0.4-0.4v-0.2
		c0-0.1,0-0.2,0.1-0.3s0.1-0.1,0.3-0.1l2-0.2l0.2-3.2c0-0.1,0.1-0.2,0.1-0.3c0.1-0.1,0.1-0.1,0.3-0.1h0.4c0.2,0,0.4,0.1,0.4,0.4v3.2
		h3.5c0.2,0,0.4,0.1,0.4,0.4v0.5c0,0.2-0.1,0.4-0.4,0.4h-3.5v8c0,0.7,0.1,1.1,0.4,1.4s0.8,0.4,1.4,0.4c0.5,0,0.9,0,1.2-0.1
		c0.2,0,0.3-0.1,0.4-0.1s0.2,0,0.2,0c0.2,0,0.3,0.1,0.3,0.3v0.4c0,0.3-0.1,0.4-0.3,0.5C146.6,77,145.9,77.1,145.1,77.1L145.1,77.1z"
		/>
	<path class="st0" d="M153,76.9c-0.2,0-0.4-0.1-0.5-0.3l-3.8-11.3c-0.1-0.2-0.1-0.3-0.1-0.4c0-0.2,0.1-0.2,0.3-0.2h0.8
		c0.2,0,0.4,0.1,0.4,0.3l3.3,10.3l2.9-10.3c0.1-0.2,0.2-0.3,0.5-0.3h0.9c0.2,0,0.4,0.1,0.5,0.3l2.9,10.3l3.4-10.4
		c0.1-0.2,0.2-0.3,0.4-0.3h0.7c0.2,0,0.3,0.1,0.3,0.2s0,0.2-0.1,0.4l-4,11.3c-0.1,0.2-0.2,0.3-0.5,0.3h-0.8c-0.2,0-0.4-0.1-0.5-0.3
		l-2.9-10.3l-2.9,10.3c-0.1,0.2-0.2,0.3-0.5,0.3L153,76.9L153,76.9z"/>
	<path class="st0" d="M173.1,77.3c-1.8,0-3.2-0.6-4.1-1.7s-1.5-2.7-1.5-4.8s0.5-3.6,1.5-4.8s2.4-1.7,4.1-1.7s3.2,0.6,4.1,1.7
		c1,1.1,1.5,2.7,1.5,4.8s-0.5,3.6-1.5,4.8C176.3,76.7,174.9,77.3,173.1,77.3z M173.1,76c2.8,0,4.2-1.7,4.2-5.2s-1.4-5.2-4.2-5.2
		s-4.2,1.7-4.2,5.2S170.3,76,173.1,76z"/>
	<path class="st0" d="M182.3,76.9c-0.2,0-0.4-0.1-0.4-0.4V65.1c0-0.2,0.1-0.4,0.4-0.4h0.5c0.3,0,0.4,0.1,0.4,0.4l0.1,1.4
		c0.6-0.7,1.2-1.2,1.8-1.4c0.6-0.3,1.3-0.4,2-0.4c0.3,0,0.5,0,0.6,0c0.2,0,0.4,0.1,0.4,0.4v0.6c0,0.1,0,0.1-0.1,0.2
		c0,0-0.1,0.1-0.2,0.1c-0.1,0-0.2,0-0.4,0c-0.1,0-0.3,0-0.5,0c-0.7,0-1.4,0.1-2,0.4s-1.1,0.7-1.7,1.3v8.9c0,0.2-0.1,0.4-0.4,0.4
		L182.3,76.9L182.3,76.9z"/>
	<path class="st0" d="M190.6,76.9c-0.2,0-0.4-0.1-0.4-0.4V59.3c0-0.2,0.1-0.4,0.4-0.4h0.7c0.2,0,0.4,0.1,0.4,0.4v10.8l5.8-5.2
		c0.2-0.2,0.4-0.2,0.6-0.2h0.9c0.2,0,0.3,0.1,0.3,0.2s-0.1,0.2-0.3,0.4l-5.9,5.2l6.4,5.9c0.1,0.1,0.2,0.2,0.2,0.3
		c0,0.2-0.1,0.2-0.3,0.2h-1c-0.2,0-0.4-0.1-0.5-0.2l-6.2-5.7v5.6c0,0.2-0.1,0.4-0.4,0.4L190.6,76.9L190.6,76.9z"/>
</g>
</svg>
