<svg width="81" height="74" viewBox="0 0 81 74" fill="none" xmlns="http://www.w3.org/2000/svg">
<rect y="0.581543" width="80.9301" height="72.8371" fill="#E20E0F"/>
<path d="M13.745 41.5238C12.8996 41.5238 11.7799 41.2724 11.7799 40.1299C11.7799 38.9646 12.9453 38.599 13.7907 38.599C15.276 38.599 16.2586 39.1474 16.2586 39.1474V40.267C16.2586 40.267 15.3903 41.5238 13.745 41.5238ZM14.0649 32.4294C11.8028 32.4294 9.79195 33.412 9.79195 33.412L10.6831 35.6741C10.6831 35.6741 12.3512 34.8744 13.9278 34.8744C14.8876 34.8744 16.2586 35.3314 16.2586 36.7481V37.3651C16.2586 37.3651 15.2303 36.5881 13.2423 36.5881C10.8888 36.5881 8.99219 38.0963 8.99219 40.1756C8.99219 42.4835 10.8659 43.8088 12.8996 43.8088C15.3446 43.8088 16.4642 42.1636 16.4642 42.1636V43.5346H19.0006V36.4739C19.0006 34.0061 17.1726 32.4294 14.0649 32.4294Z" fill="white"/>
<path d="M20.6032 32.7036V48.7902H23.3452V42.415C23.7108 42.872 24.6933 43.8088 26.4071 43.8088C29.2177 43.8088 31.6855 41.4552 31.6855 38.1191C31.6855 34.783 29.2177 32.4294 26.4071 32.4294C24.1678 32.4294 23.1395 34.1203 23.1395 34.1203V32.7036H20.6032ZM23.3452 36.4967C23.3452 36.4967 24.1221 34.9886 25.9273 34.9886C27.7781 34.9886 28.8978 36.3368 28.8978 38.1191C28.8978 39.9014 27.7781 41.2496 25.9273 41.2496C24.1221 41.2496 23.3452 39.7415 23.3452 39.7415V36.4967Z" fill="white"/>
<path d="M32.9935 43.5346H35.7356V32.7036H32.9935V43.5346ZM32.5594 29.2075C32.5594 30.2129 33.3591 31.0127 34.3645 31.0127C35.3699 31.0127 36.1697 30.2129 36.1697 29.2075C36.1697 28.2021 35.3699 27.4023 34.3645 27.4023C33.3591 27.4023 32.5594 28.2021 32.5594 29.2075Z" fill="white"/>
<path d="M8.99219 54.8897H11.1173V59.6882C11.1173 61.9961 12.7168 63.5271 14.819 63.5271C16.3957 63.5271 17.4239 62.8187 17.4239 62.8187L16.4185 60.5794C16.4185 60.5794 15.893 60.9679 15.276 60.9679C14.5448 60.9679 13.8593 60.5794 13.8593 59.2541V54.8897H17.1269V52.4219H13.8593V49.2H11.1173V52.4219H8.99219V54.8897Z" fill="white"/>
<path d="M22.4742 61.2421C21.6287 61.2421 20.5091 60.9907 20.5091 59.8482C20.5091 58.6828 21.6744 58.3172 22.5199 58.3172C24.0052 58.3172 24.9877 58.8656 24.9877 58.8656V59.9853C24.9877 59.9853 24.1194 61.2421 22.4742 61.2421ZM22.7941 52.1477C20.5319 52.1477 18.5211 53.1302 18.5211 53.1302L19.4123 55.3924C19.4123 55.3924 21.0803 54.5926 22.657 54.5926C23.6167 54.5926 24.9877 55.0496 24.9877 56.4664V57.0833C24.9877 57.0833 23.9595 56.3064 21.9715 56.3064C19.6179 56.3064 17.7213 57.8145 17.7213 59.8939C17.7213 62.2018 19.5951 63.5271 21.6287 63.5271C24.0737 63.5271 25.1934 61.8819 25.1934 61.8819V63.2529H27.7298V56.1922C27.7298 53.7243 25.9017 52.1477 22.7941 52.1477Z" fill="white"/>
<path d="M29.6522 63.2529H32.3942V45.9781H29.6522V63.2529Z" fill="white"/>
<path d="M37.366 45.9781H34.6239V63.2529H37.366V58.5229L41.5019 63.2529H45.1122L40.0394 57.5403L44.7923 52.4219H41.2505L37.366 56.6949V45.9781Z" fill="white"/>
<path d="M44.3921 61.562C44.3921 61.562 46.1058 63.5271 49.282 63.5271C52.0469 63.5271 54.012 62.0418 54.012 60.191C54.012 57.9516 52.481 57.2433 50.3331 56.7863C48.5051 56.3978 47.7739 56.2379 47.7739 55.5752C47.7739 54.9125 48.7108 54.5469 49.739 54.5469C51.2014 54.5469 52.4353 55.4838 52.4353 55.4838L53.8064 53.473C53.8064 53.473 52.184 52.1477 49.739 52.1477C46.7685 52.1477 45.0776 53.8386 45.0776 55.5295C45.0776 57.586 46.9513 58.5 49.0992 58.957C50.7444 59.2998 51.2471 59.4369 51.2471 60.1453C51.2471 60.8079 50.3103 61.1278 49.1906 61.1278C47.3626 61.1278 45.923 59.574 45.923 59.574L44.3921 61.562Z" fill="white"/>
</svg>
